<?xml version="1.0" encoding="UTF-8"?>
<!-- Generator: Adobe Illustrator 25.0.0, SVG Export Plug-In . SVG Version: 6.00 Build 0)  -->
<svg xmlns="http://www.w3.org/2000/svg" xmlns:xlink="http://www.w3.org/1999/xlink" version="1.1" id="Layer_1" x="0px" y="0px" viewBox="0 0 178.4 94.2" style="enable-background:new 0 0 178.4 94.2;" xml:space="preserve">
<style type="text/css">
	.st0{fill:#FFFFFF;}
</style>
<path class="st0" d="M110.5,48.1h8.9l-8.5-32.4H98.4l-8.5,32.4h8.5l1.2-5.3h9.6L110.5,48.1z M107.7,36.3H101l1.7-7.3l1.4-6.6h0.4  L106,29L107.7,36.3z M134.3,14.4c-8,0-13.3,4.7-13.3,11.6v11.7c0,6.9,5.3,11.6,13.3,11.6s13.3-4.4,13.3-11v-1.4h-8.6  c0.1,1.5-0.4,3.1-1.4,4.2c-2,1.8-5.1,1.6-6.9-0.4c-0.8-0.8-1.2-1.9-1.2-3.1V26.1c0.1-2.7,2.4-4.8,5.1-4.7c1.1,0,2.2,0.5,3.1,1.2  c1,1.2,1.5,2.7,1.4,4.2h8.6v-1.4C147.6,18.9,142.3,14.4,134.3,14.4 M168.4,48.1h10l-8.6-12.6v-0.2l0.1,0c4.4-1.1,7.4-5,7.4-9.5  c0-5.9-4.4-10.1-10.4-10.1h-15.6v32.4h8.2V35.6h1.3l0,0.1L168.4,48.1z M165.2,29.1h-5.7v-6.5h5.7c2.1,0,3.6,1.3,3.6,3.2  c0,1.8-1.4,3.3-3.2,3.3C165.5,29.1,165.4,29.1,165.2,29.1 M89.7,76.8h3.8v-8.6h5.2c3.6,0.1,6.6-2.8,6.7-6.4c0.1-3.6-2.8-6.6-6.4-6.7  c-0.1,0-0.2,0-0.3,0h-9L89.7,76.8z M97.9,64.9h-4.3v-6.7h4.3c1.8-0.1,3.3,1.2,3.5,2.9c0,0.1,0,0.2,0,0.4c0.1,1.8-1.4,3.3-3.2,3.3  C98.1,65,98,65,97.9,64.9 M115.3,54.4c-2-0.1-4,0.6-5.6,1.8c-1.5,1.3-2.4,3.2-2.3,5.2v9c-0.1,2,0.8,3.9,2.3,5.2  c1.6,1.2,3.6,1.9,5.6,1.8c4.8,0,8-2.8,8-7.1v-9C123.3,57.2,120.1,54.4,115.3,54.4 M115.3,74.2c-2.1,0.1-3.9-1.5-4-3.6  c0-0.1,0-0.3,0-0.4v-8.6c0-2.2,1.8-4,4-4s4,1.8,4,4c0,0,0,0,0,0v8.6c0.1,2.1-1.5,3.9-3.6,4C115.6,74.3,115.5,74.3,115.3,74.2   M138,76.8h4.9l-8.3-11.3l0,0l7.8-10.3v0h-4.5l-6.5,9H130v-9h-3.8v21.7h3.8v-9.5h1.4L138,76.8z M144.9,76.8h14.3v-3.2h-10.5v-6.8  h8.7v-3.2h-8.7v-5.2h10.5v-3.2h-14.3V76.8z M173.6,76.8h4.9l-6.7-9.1v-0.1l0.1,0c3.2-0.3,5.6-3,5.6-6.2c0-3.6-2.8-6.3-6.7-6.3h-9  v21.7h3.8v-9.2h1.8l0,0L173.6,76.8z M169.9,64.5h-4.3v-6.2h4.3c2.1,0,3.5,1.2,3.5,3.1C173.3,63.2,171.9,64.5,169.9,64.5 M65.9,81.6  l12.9,8.2L66.5,57l-7.7,5.6L65.9,81.6z M24.5,52.9L8.3,94.2l74.8-54.8H0l14.3,9.2h40.9l-1,0.7L28.3,68.2l6-15.3L24.5,52.9z M48.5,35  h9.8L45.2,0L31.5,35h9.8l3.6-9.3L48.5,35z"></path>
</svg>
