<svg enable-background="new 0 0 210 60" viewBox="0 0 210 60" xmlns="http://www.w3.org/2000/svg"><path d="m9.67 27.94c-3.46-.21-6.55-.4-9.64-.59-.01-.13-.02-.25-.03-.37 3.09-.2 6.18-.4 9.57-.62 0-3.62 0-7.23 0-11.2 5.96.23 11.62.25 17.24.73 3.17.27 5.74 1.93 6.55 5.38.71 3.06-.26 5.31-3.09 7.16-.9-.29-1.85-.61-2.81-.9-.87-.27-1.75-.51-2.89-.84.34-.38.53-.57.69-.78 1.54-1.96 1.04-3.9-1.36-4.37-2.17-.43-4.44-.39-6.87-.58v5.52c2.28.33 4.66.51 6.97 1.04 2.32.54 4.66 1.22 6.82 2.21 2.97 1.36 4.31 3.91 4.17 7.18-.13 3.15-1.87 5.3-4.66 6.39-1.99.78-4.19 1.3-6.31 1.4-4.42.21-8.86.08-13.29.07-.29 0-.58-.12-1.08-.23.02-5.44.02-10.85.02-16.6zm7.12 1.5c-.03-.08-.06-.16-.03-.08-.07-.04 0 0 .08.04v9.46c2.76 0 5.14.08 7.53-.03 1.47-.07 2.75-.77 3.13-2.34.37-1.52-.28-2.79-1.48-3.67-2.75-2-5.81-3.2-9.23-3.38z" fill="#ed3839"/><path d="m57.18 38.58v6.06c-6.62 0-13.1 0-19.72 0 0-9.7 0-19.31 0-29.09h18.92v5.88c-4.1 0-8.1 0-12.25 0v5.38h11.63v5.81c-3.91 0-7.68 0-11.6 0v5.95c4.31.01 8.55.01 13.02.01z" fill="#ed3839"/><path d="m110.37 30.13c.02 8.52-6.16 14.7-14.71 14.71-8.5.01-14.78-6.22-14.8-14.69-.02-8.41 6.32-14.74 14.78-14.75 8.51 0 14.71 6.2 14.73 14.73zm-14.99 10.64c5.93.17 10.37-4.19 10.54-10.35.16-6.04-4.02-10.73-9.74-10.89-6.01-.17-10.44 4.07-10.65 10.22s4 10.85 9.85 11.02z" fill="#fff"/><path d="m74.01 44.68c-2.58 0-4.65 0-6.97 0 0-7.69 0-15.28 0-23.12-2.77 0-5.3 0-7.97 0 0-2.15 0-4.03 0-6.05h27.12c-1.93 1.89-3.85 3.76-6.11 5.96-1.57 0-3.66 0-6.07 0z" fill="#ed3839"/><g fill="#fff"><path d="m116.92 26.38v18.24c-1.36 0-2.48 0-3.82 0 0-9.5 0-19.01 0-29.02 6.33 6.37 12.44 12.54 18.97 19.12 0-6.76 0-12.92 0-19.2h3.96v29.19c-6.43-6.42-12.49-12.49-18.56-18.55-.18.07-.36.14-.55.22z"/><path d="m169.19 44.7c-1.57 0-2.65 0-3.7 0-.62-1.79-.69-26.58-.14-28.61 3.07 2.97 6.18 5.99 9.31 8.98 3.14 3 6.31 5.97 9.49 8.99 0-5.97 0-12.14 0-18.49h3.99v28.9c-6.35-6.26-12.43-12.26-18.95-18.7z"/><path d="m191.01 15.5h18.28v3.94c-4.7 0-9.26 0-13.96 0v8.48h12.96v3.94c-4.3 0-8.6 0-13.01 0v8.72h14.71v4.03c-6.28 0-12.53 0-18.99 0 .01-9.63.01-19.22.01-29.11z"/><path d="m142.82 40.67h12.87v3.92c-5.6 0-11.21 0-16.96 0 0-9.67 0-19.27 0-29.04h4.08c.01 8.23.01 16.5.01 25.12z"/><path d="m162.45 44.68c-1.37 0-2.58 0-3.98 0 0-9.69 0-19.35 0-29.16h3.98z"/></g></svg>