<svg enable-background="new 0 0 210 60" viewBox="0 0 210 60" xmlns="http://www.w3.org/2000/svg"><path d="m162.88 29.82c0-1.61.16-3.18.45-4.7h-11.59l-7.06 9.02h11.21s.36.01.74.07c2.09.24 3.74 2.01 3.74 4.13 0 2.11-1.6 3.86-3.74 4.12h-6.65c-7.2 0-13.05-5.57-13.05-12.69 0-.94.1-1.85.3-2.75.14-.63.71-2.67 1.83-4.41 2.28-3.52 6.34-5.8 10.88-5.8h7.51s0-.01.01-.01h5.34l7.07-9.21h-2.94-17.29-.12c-12.33-.01-22.36 9.92-22.36 22.14s10.03 22.16 22.37 22.16h.1 6.39 8.66c2.58 0 4.68-2.02 4.68-4.58v-.8c-4.03-4.44-6.48-10.3-6.48-16.69z" fill="#fff"/><path d="m202.94 16.78 7.06-9.2h-21.4-.12c-7.45 0-14.04 3.62-18.11 9.2z" fill="#cd181f"/><g fill="#fff"><path d="m203.67 25.14h-13.38l-7.06 9.02h11.62s.36.01.74.07c2.09.24 3.74 2.01 3.74 4.13 0 2.11-1.6 3.86-3.74 4.12h-6.65c-7.2 0-13.05-5.57-13.05-12.69 0-.94.1-1.85.3-2.75.07-.36.29-1.14.65-2.07h-10.17c-.35 1.54-.52 3.14-.52 4.78 0 12.22 10.03 22.16 22.37 22.16h.1 6.39 8.66c2.58 0 4.68-2.02 4.68-4.58v-17.55c-.01-2.55-2.1-4.64-4.68-4.64z"/><path d="m33.23 50.51c-1.72.86-5.87 1.91-11.18 1.91-14.47 0-22.05-8.4-22.05-19.37 0-12.65 9.84-20.44 22.83-20.44 5.14 0 9.11 1 10.87 1.94l-1.95 7.06c-2.01-.87-4.98-1.67-8.58-1.67-7.72 0-13.62 4.35-13.62 12.57 0 7.22 4.89 12.48 13.7 12.48 3.13 0 6.49-.61 8.49-1.47z"/><path d="m39 10.9h9.09v40.83h-9.09z"/><path d="m83.83 42.64c0 3.84.1 6.86.23 9.09h-7.88l-.4-4.27h-.2c-1.02 1.67-3.74 4.96-9.45 4.96-5.79 0-10.59-3.42-10.59-12.36v-16.24h9.09v14.63c0 4.23 1.5 6.7 4.9 6.7 2.72 0 4.31-1.86 4.94-3.43.21-.5.28-1.05.28-1.66v-16.24h9.09v18.82z"/><path d="m91.11 51.73c.13-1.64.23-5.02.23-8.37v-32.46h9.09v16.41h.11c1.76-2.53 5.03-4.17 9.29-4.17 7.14 0 12.81 5.34 12.72 14.24 0 10.14-7.2 15.04-13.99 15.04-3.58 0-7.22-1.29-9.3-4.77h-.11l-.35 4.09h-7.69zm9.32-12.46c0 .5.02.98.11 1.43.56 2.43 2.87 4.67 5.96 4.67 4.08 0 6.79-2.79 6.79-7.7 0-4.18-2.22-7.71-6.77-7.71-2.8 0-5.34 1.94-5.95 4.85-.09.5-.14.99-.14 1.56z"/></g></svg>