<svg enable-background="new 0 0 210 60" viewBox="0 0 210 60" xmlns="http://www.w3.org/2000/svg"><circle cx="31.26" cy="30" fill="#c8324d" r="30"/><g fill="#fff"><path d="m31.71 35.15c-1.99 1.94-3.36 3.41-4.87 4.71-3.7 3.21-7.92 3.98-12.42 2.01-4.29-1.88-6.65-5.32-6.86-9.99-.22-4.91 2.04-8.56 6.38-10.78 1.6-.82 3.5-1.06 5.55-1.65.16-.79.32-1.93.62-3.03 1.22-4.52 4.16-7.46 8.73-8.44 4.43-.95 8.32.34 11.34 3.83.49.56.93 1.2 1.23 1.88.59 1.35.14 2.78-1.01 3.54-1.2.8-2.58.68-3.68-.37-.36-.34-.61-.8-.94-1.17-2.16-2.46-5.41-2.87-7.9-1-2.42 1.82-2.92 5.22-1.14 7.85.23.35.55.64.77.99.84 1.35.76 2.68-.18 3.69-.96 1.04-2.49 1.17-3.91.3-.43-.26-.8-.62-1.22-.88-2.49-1.53-5.75-1.03-7.52 1.15-1.81 2.22-1.65 5.51.36 7.55 2.06 2.09 5.42 2.22 7.78.28.65-.53 1.22-1.15 1.81-1.74 3.57-3.54 7.08-7.15 10.72-10.61 5.07-4.83 12.56-4.5 17.02.63 3.88 4.47 3.66 11.25-.52 15.51s-11.04 4.71-15.55.84c-1.65-1.4-2.92-3.22-4.59-5.1zm3.5-3.72c1.78 1.62 3.15 2.96 4.61 4.19 2.34 1.97 5.7 1.82 7.77-.25 2.09-2.1 2.2-5.51.24-7.72-1.99-2.26-5.48-2.56-7.94-.55-1.48 1.19-2.81 2.58-4.68 4.33z"/><path d="m31.25 52.13c-2.62.07-4.96-.73-7-2.33-1.56-1.22-1.85-2.79-.9-4.16.93-1.35 2.56-1.69 4.21-.6 2.55 1.67 4.93 1.66 7.47-.02 1.63-1.08 3.29-.71 4.2.66s.59 2.96-.96 4.16c-2.06 1.58-4.41 2.37-7.02 2.29z"/><path d="m31.31 22.07c-1.63.01-2.95-1.23-2.96-2.78-.01-1.54 1.32-2.89 2.87-2.91 1.56-.02 2.94 1.3 2.96 2.83.02 1.57-1.26 2.85-2.87 2.86z"/><path d="m92.71 23.27c.19.18.33.38.41.61.09.23.13.47.13.71s-.04.48-.13.71-.23.44-.41.63c-.19.19-.4.33-.64.42s-.48.14-.73.15-.49-.04-.73-.13-.44-.22-.62-.4c-.58-.58-1.23-1.01-1.93-1.29-.71-.28-1.44-.41-2.2-.41-.77 0-1.5.15-2.2.44-.7.3-1.31.7-1.84 1.22s-.95 1.13-1.25 1.84c-.31.71-.46 1.46-.46 2.27 0 .77.14 1.51.43 2.21s.68 1.32 1.19 1.84c.51.53 1.11.95 1.81 1.27s1.45.48 2.26.49c.77.01 1.5-.12 2.18-.39.69-.27 1.34-.71 1.96-1.31.18-.18.39-.31.62-.39.24-.08.48-.13.73-.13s.49.04.73.13c.24.08.44.21.62.38.19.19.33.4.42.64s.14.48.14.73-.04.49-.13.73-.22.44-.4.62c-.97.96-2.04 1.67-3.22 2.15-1.18.47-2.4.71-3.67.71-1.3 0-2.53-.25-3.69-.76-1.16-.5-2.17-1.19-3.03-2.07-.86-.87-1.55-1.9-2.05-3.07s-.76-2.42-.76-3.74c0-.84.11-1.66.33-2.47s.53-1.57.93-2.28.89-1.37 1.46-1.97 1.21-1.12 1.93-1.56c.71-.43 1.49-.77 2.33-1.01s1.72-.36 2.65-.36c1.24 0 2.45.23 3.63.7s2.24 1.18 3.2 2.14z"/><path d="m95.38 32.63c0-.98.19-1.89.56-2.75.38-.85.88-1.6 1.53-2.24.64-.64 1.39-1.15 2.24-1.52s1.77-.56 2.73-.56c.98 0 1.89.19 2.75.56.85.37 1.6.88 2.24 1.52s1.14 1.39 1.51 2.24.56 1.77.56 2.75c0 .97-.19 1.88-.56 2.74s-.87 1.61-1.51 2.25-1.38 1.15-2.24 1.52c-.85.37-1.77.56-2.75.56-.97 0-1.88-.19-2.73-.56s-1.6-.88-2.24-1.52-1.15-1.39-1.53-2.25-.56-1.77-.56-2.74zm3.85 0c0 .44.09.86.26 1.25s.41.73.7 1.02.63.52 1.02.69.8.25 1.24.25.86-.08 1.25-.25.73-.4 1.01-.69c.29-.29.51-.63.68-1.02s.25-.81.25-1.25-.08-.86-.25-1.25-.39-.73-.68-1.02-.62-.52-1.01-.69-.81-.25-1.25-.25c-.43 0-.85.08-1.24.25s-.73.4-1.02.69-.52.63-.7 1.02-.26.8-.26 1.25z"/><path d="m112.14 22.35c0-.29.05-.56.16-.81s.26-.47.44-.65c.19-.18.41-.33.65-.44.25-.11.51-.16.8-.16.28 0 .54.05.79.16s.47.25.67.44.34.4.45.65.16.52.16.81-.05.55-.16.8-.26.46-.45.65-.41.34-.67.44c-.25.11-.52.16-.79.16-.29 0-.55-.05-.8-.16s-.46-.26-.65-.44c-.19-.19-.34-.4-.44-.65s-.16-.51-.16-.8zm4 15.26c0 .27-.05.52-.15.75s-.23.43-.41.61c-.17.17-.38.31-.61.41s-.48.15-.75.15-.52-.05-.75-.15-.44-.23-.61-.41c-.18-.17-.32-.37-.42-.61-.1-.23-.16-.48-.16-.75v-9.95c0-.27.05-.52.16-.75.1-.23.24-.43.42-.61.18-.17.39-.31.63-.41s.5-.15.76-.15c.27 0 .51.05.74.15s.43.23.6.41c.17.17.31.38.4.61s.14.48.14.75v9.95z"/><path d="m119.55 27.59c0-.55.11-1 .33-1.36.22-.35.61-.53 1.16-.53.46 0 .84.17 1.13.52s.54.78.73 1.3c.5-.59 1.1-1.07 1.78-1.43s1.45-.54 2.31-.54c.95 0 1.79.18 2.54.53.75.36 1.37.84 1.88 1.46s.9 1.34 1.17 2.17.41 1.72.41 2.67v5.27c0 .27-.05.51-.15.74s-.23.43-.4.6-.37.31-.59.4c-.23.09-.47.14-.74.14s-.52-.05-.75-.14c-.24-.09-.45-.23-.63-.4s-.33-.37-.43-.6-.16-.47-.16-.74v-5.18c0-.03 0-.06 0-.1 0-.03.01-.07.01-.1-.02-.39-.1-.77-.24-1.12s-.33-.66-.56-.92c-.24-.26-.52-.47-.85-.61-.33-.15-.7-.22-1.1-.22-.42 0-.82.11-1.18.32-.37.21-.68.49-.96.83-.27.34-.48.72-.64 1.15-.15.42-.23.85-.23 1.27v4.56c0 .27-.05.52-.14.76s-.22.45-.38.63-.36.32-.59.42-.49.16-.76.16-.53-.05-.77-.16c-.24-.1-.44-.24-.62-.42s-.32-.39-.42-.63-.16-.5-.16-.76z"/><path d="m143.75 20.56c1 0 1.93.19 2.81.56.87.38 1.64.89 2.29 1.53s1.17 1.41 1.55 2.28.57 1.81.57 2.81c0 .99-.19 1.92-.57 2.78-.38.87-.9 1.62-1.55 2.27-.65.64-1.41 1.15-2.29 1.53-.87.38-1.81.56-2.81.56h-3.5v2.74c0 .27-.05.52-.15.75s-.24.43-.41.6c-.18.17-.38.3-.61.4s-.48.15-.75.15-.52-.05-.75-.15-.44-.23-.61-.4c-.18-.17-.32-.37-.41-.6-.1-.23-.15-.48-.15-.75v-15.14c0-.27.05-.52.15-.75s.24-.44.41-.61c.18-.18.38-.32.61-.41.23-.1.48-.15.75-.15zm-3.49 3.85v6.62h3.55c.44 0 .87-.09 1.27-.27s.75-.42 1.05-.73.54-.66.72-1.05.27-.81.27-1.24c0-.44-.09-.87-.27-1.27s-.43-.75-.73-1.06-.65-.55-1.05-.73-.82-.27-1.25-.27z"/><path d="m152.63 32.63c0-.98.19-1.89.56-2.75.37-.85.88-1.6 1.53-2.24.64-.64 1.39-1.15 2.24-1.52s1.76-.56 2.73-.56c.98 0 1.89.19 2.75.56.85.37 1.6.88 2.24 1.52s1.14 1.39 1.51 2.24.56 1.77.56 2.75c0 .97-.19 1.88-.56 2.74s-.87 1.61-1.51 2.25-1.38 1.15-2.24 1.52c-.85.37-1.77.56-2.75.56-.97 0-1.88-.19-2.73-.56s-1.6-.88-2.24-1.52-1.15-1.39-1.53-2.25-.56-1.77-.56-2.74zm3.85 0c0 .44.09.86.26 1.25s.4.73.7 1.02c.29.29.63.52 1.02.69s.8.25 1.24.25.86-.08 1.25-.25.73-.4 1.01-.69c.29-.29.51-.63.68-1.02s.25-.81.25-1.25-.08-.86-.25-1.25-.39-.73-.68-1.02-.62-.52-1.01-.69-.81-.25-1.25-.25c-.43 0-.85.08-1.24.25s-.73.4-1.02.69-.52.63-.7 1.02-.26.8-.26 1.25z"/><path d="m176.89 32.17 4.03 4.13c.18.18.31.38.4.62s.13.48.13.73-.05.49-.15.73c-.09.24-.24.45-.44.64-.18.18-.39.31-.62.4-.24.09-.48.13-.72.13-.24-.01-.48-.05-.72-.15-.24-.09-.44-.24-.62-.44l-3.96-4.25-.99.93v2c0 .27-.05.51-.15.74s-.23.42-.41.59c-.17.17-.37.3-.6.4s-.47.15-.73.15c-.27 0-.52-.05-.75-.15-.24-.1-.44-.23-.62-.4s-.32-.36-.42-.59-.16-.47-.16-.74v-15.33c0-.27.05-.51.16-.74.1-.23.24-.42.42-.59s.38-.3.62-.4.49-.15.75-.15c.27 0 .52.05.75.15s.43.23.6.4.3.37.4.59c.1.23.15.47.15.74v8.28l4.36-4.31c.19-.19.39-.32.62-.41.23-.08.46-.12.7-.11s.47.07.69.17.43.25.61.44.33.4.41.64c.09.24.13.48.13.72s-.05.48-.14.7c-.09.23-.23.43-.42.61z"/><path d="m187.24 34.35c.31.5.7.88 1.19 1.13s1.03.38 1.62.38c.39 0 .73-.03 1.01-.1.28-.06.53-.17.75-.32.36-.25.69-.39 1.01-.44s.62-.02.91.09c.2.08.38.19.54.33s.3.31.41.5.19.39.24.61.06.44.03.67c-.03.22-.1.44-.22.65s-.29.41-.5.59c-.19.15-.41.3-.66.45s-.54.29-.87.41-.71.21-1.15.29c-.43.07-.93.11-1.5.11-.98 0-1.9-.19-2.76-.56s-1.61-.88-2.26-1.52-1.16-1.39-1.53-2.24c-.38-.85-.56-1.77-.56-2.75s.19-1.9.56-2.76.89-1.61 1.53-2.24c.65-.64 1.4-1.14 2.26-1.51s1.78-.56 2.76-.56c.96 0 1.87.18 2.73.54s1.61.86 2.25 1.49 1.15 1.37 1.53 2.21.58 1.75.6 2.72c0 .54-.18.98-.53 1.32s-.81.5-1.37.5h-8.02zm5.97-3.2c-.27-.59-.67-1.03-1.21-1.31s-1.16-.42-1.87-.42-1.33.15-1.84.45c-.52.3-.91.73-1.16 1.28z"/><path d="m199.48 27.59c0-.55.11-1 .33-1.36.22-.35.61-.53 1.16-.53.24 0 .45.05.64.14s.36.23.5.39c.15.17.28.36.4.59.12.22.23.47.33.73.46-.55 1.01-.99 1.63-1.31s1.35-.49 2.18-.51h.09c.63 0 1.12.18 1.47.54s.53.82.53 1.37c0 .28-.05.53-.16.77-.1.24-.25.44-.43.61s-.39.31-.64.41c-.24.1-.5.15-.78.15h-.09c-.46.01-.9.11-1.3.31s-.75.46-1.04.78c-.3.33-.53.7-.7 1.13-.17.42-.26.87-.27 1.35v4.38c0 .27-.05.52-.14.76s-.22.45-.38.63-.36.32-.59.42-.49.16-.76.16-.53-.05-.77-.16c-.24-.1-.44-.24-.62-.42s-.32-.39-.42-.63-.16-.5-.16-.76v-9.94z"/></g></svg>