<svg width="297" height="61" viewBox="0 0 297 61" fill="none" xmlns="http://www.w3.org/2000/svg">
<path d="M48.3092 30.6959C48.3092 28.5117 48.5216 26.3927 48.9138 24.3226H33.3735L23.9121 36.5476H38.9458C38.9458 36.5476 39.436 36.5638 39.9263 36.6453C42.7369 36.9713 44.9429 39.3674 44.9429 42.2362C44.9429 45.0887 42.8023 47.4685 39.9263 47.8108H31.0041C21.3466 47.8108 13.5029 40.2639 13.5029 30.6307C13.5029 29.3593 13.6337 28.1205 13.9115 26.898C14.1076 26.0504 14.8592 23.2957 16.3626 20.9322C19.4184 16.1563 24.8599 13.0756 30.9551 13.0756H41.0211C41.0211 13.0756 41.0211 13.0593 41.0374 13.0593H48.1948L57.6725 0.589859H30.4158C13.8951 0.573559 0.430176 14.021 0.430176 30.5655C0.430176 47.1099 13.8788 60.5574 30.4322 60.5574H50.7603C54.2246 60.5574 57.0352 57.819 57.0352 54.3634V53.2876C51.61 47.2892 48.3092 39.3511 48.3092 30.6959Z" fill="white"/>
<path d="M102.038 13.043L111.5 0.589844H82.6578C72.6735 0.589844 63.833 5.49613 58.3751 13.043H102.038Z" fill="#CD181F"/>
<path d="M103.002 24.3551H85.0599L75.5985 36.58H91.1714C91.1714 36.58 91.6617 36.5963 92.1519 36.6778C94.9625 37.0038 97.1686 39.3999 97.1686 42.2687C97.1686 45.1212 95.0279 47.501 92.1519 47.8433H83.2297C73.5722 47.8433 65.7286 40.2964 65.7286 30.6631C65.7286 29.3917 65.8593 28.1529 66.1371 26.9304C66.2351 26.4414 66.5293 25.382 67.0032 24.1269H53.3585C52.9009 26.2133 52.6558 28.3811 52.6558 30.5979C52.6558 47.1424 66.1044 60.5898 82.6578 60.5898H102.986C106.45 60.5898 109.261 57.8514 109.261 54.3959V30.6468C109.277 27.1912 106.467 24.3551 103.002 24.3551Z" fill="white"/>
<path d="M231.704 42.9859C233.567 46.4089 236.165 47.7944 239.564 47.8433C244.433 47.8759 249.336 47.8759 254.189 47.9248H257.114C257.114 50.2068 257.081 52.4236 257.081 54.7545C256.526 54.7871 255.97 54.8686 255.382 54.8686C250.038 54.8686 244.711 54.836 239.368 54.7871C231.017 54.7056 224.35 48.5116 223.991 40.6713C223.599 32.1138 229.53 25.1375 238.142 24.6159C244.433 24.2573 250.757 24.6159 257.245 24.6485C257.245 26.9304 257.212 29.0983 257.212 31.5922C255.986 31.5922 254.761 31.5922 253.535 31.5922C248.862 31.5596 244.172 31.5107 239.498 31.5107C236.214 31.5107 233.73 32.8962 231.785 36.0095C240.397 36.0421 248.698 36.091 257.163 36.1236C257.163 38.536 257.13 40.7039 257.13 43.1815C248.78 43.1 240.413 43.0674 231.704 42.9859Z" fill="white"/>
<path d="M285.4 47.0935C289.355 49.8156 292.868 52.2117 296.43 54.673C296.397 54.7871 296.348 54.9175 296.316 55.0642C293.195 55.0642 290.074 55.0642 286.952 54.9827C286.479 54.9827 286.005 54.5426 285.612 54.2329C281.625 51.4782 277.671 48.6746 273.667 45.871C272.605 45.1212 271.657 44.3388 272.082 42.8392C272.523 41.2581 273.782 41.0299 275.203 41.0625C278.161 41.0951 281.135 41.144 284.093 41.0951C287.263 41.0951 289.469 39.0087 289.518 36.0421C289.551 33.0103 287.345 30.875 284.093 30.875C278.684 30.8424 273.308 30.7935 267.686 30.7935C267.654 38.7968 267.605 46.686 267.572 54.7708C265.366 54.7708 263.389 54.7382 261.248 54.7382C261.281 44.7626 261.362 34.8196 261.411 24.7626C261.853 24.73 262.278 24.5996 262.751 24.5996C269.941 24.6322 277.099 24.5996 284.305 24.7137C293.048 24.8767 298.293 33.2385 294.551 40.9158C293.015 44.078 290.564 46.0503 287.034 46.7186C286.577 46.7675 286.184 46.8979 285.4 47.0935Z" fill="white"/>
<path d="M129.279 46.1481C129.279 44.1432 129.311 42.3176 129.311 40.3127C133.936 40.3453 138.446 40.3942 142.956 40.3453C147.139 40.3127 149.672 35.9606 147.417 32.5702C146.665 31.5107 145.211 30.3208 144.018 30.2882C138.168 30.0111 132.318 30.1252 126.272 30.0926C126.239 38.1448 126.19 46.0666 126.157 54.1025C123.984 54.1025 122.039 54.0699 119.915 54.0699C119.948 44.0454 120.03 34.0698 120.079 23.8172H123.674C130.112 23.8498 136.567 23.8172 143.054 23.9313C152.107 24.1269 157.32 33.4667 152.695 41.1277C150.881 44.1595 148.185 46.0503 144.672 46.1807C139.59 46.3763 134.524 46.1807 129.279 46.1481Z" fill="white"/>
<path d="M157.189 39.8237C157.271 30.5164 164.787 23.1489 174.118 23.1815C183.449 23.2141 190.884 30.7609 190.835 40.0519C190.753 49.3266 183.204 56.7757 173.906 56.7268C164.575 56.6616 157.14 49.131 157.189 39.8237ZM184.821 39.9867C184.821 34.1187 179.886 29.1798 173.987 29.1798C168.056 29.2124 163.153 34.1513 163.202 40.0193C163.235 45.8221 168.105 50.6632 173.922 50.7121C179.805 50.7447 184.821 45.8221 184.821 39.9867Z" fill="white"/>
<path d="M226.997 54.5752C224.269 54.5752 221.507 54.5752 218.778 54.4937C218.271 54.4937 217.667 54.1025 217.242 53.7439C212.699 50.0438 208.189 46.3274 203.679 42.5784C201.473 40.7202 201.391 37.9655 203.646 36.1073C208.189 32.3257 212.813 28.6582 217.438 24.9908C217.879 24.6322 218.5 24.404 219.023 24.3551C221.703 24.3225 224.399 24.3551 227.095 24.3551C227.259 24.5507 227.455 24.7952 227.602 24.9908C227.128 25.1864 226.622 25.3005 226.213 25.6265C221.343 29.5384 216.49 33.4667 211.67 37.4113C209.725 38.9924 209.725 39.6607 211.637 41.2418C216.768 45.545 221.915 49.7993 227.063 54.1025C227.046 54.2655 226.997 54.4285 226.997 54.5752Z" fill="white"/>
<path d="M200.313 54.4937C198.254 54.4937 196.276 54.4611 194.217 54.4611C194.25 44.404 194.332 34.3795 194.381 24.3388C196.44 24.3388 198.417 24.3714 200.476 24.3714C200.443 34.461 200.394 44.4366 200.313 54.4937Z" fill="white"/>
</svg>
