<svg enable-background="new 0 0 210 60" viewBox="0 0 210 60" xmlns="http://www.w3.org/2000/svg"><path d="m178.58 59.94c-.42-.1-.83-.24-1.25-.3-1.77-.23-3.42-.74-4.87-1.83-1.38-1.04-2.05-2.45-2.24-4.25h6.92c.39.82 1.11 1.44 2.15 1.67s2.06.18 3.06-.15c.77-.25 1.35-.75 1.6-1.53.53-1.65.45-3.34.39-5.02-.12-.08-.24-.15-.36-.23-.06.17-.08.39-.2.52-3.85 4.4-10.75 3.59-13.3-1.67-1.82-3.77-1.78-7.69.08-11.46 2.21-4.48 7.72-5.1 10.82-3.64.79.37 1.47 1.01 2.16 1.58.33.27.58.66 1.02 1.18.04-.6.08-.98.09-1.36.01-.4 0-.8 0-1.17 1.07-.28 4.58-.33 6.2-.1.02.37.07.76.07 1.16 0 5.81.02 11.63-.01 17.44 0 .98-.09 1.99-.29 2.95-.7 3.26-2.94 4.92-6.05 5.6-.79.17-1.6.22-2.4.35-.3.05-.58.17-.88.26-.91 0-1.81 0-2.71 0zm6.33-18.32c0-2.95-1.35-4.59-4.11-4.81-2.35-.19-4.21.87-4.79 3.19-.7 2.83.31 5 2.21 5.92.2.1.41.18.62.25 3 .97 6.26-.93 6.07-4.55z" fill="#d12e26"/><path d="m0 23.14c.54.03 1.07.08 1.61.09 3.69.08 7.38.08 11.06.23 4.55.19 7.58 3.12 8.18 7.65.29 2.2.09 4.3-.81 6.33-1.13 2.57-3.17 3.98-5.91 4.33-1.47.19-2.96.2-4.44.26-.76.03-1.52.01-2.42.01-.13 1.6-.05 3.11-.06 4.62-.01 1.48 0 2.96 0 4.59-2.47.01-4.84.02-7.21.03 0-9.38 0-18.76 0-28.14zm7.3 12.7c1.54.11 2.97.13 4.35-.33 1.38-.45 1.93-1.37 1.92-3.03-.01-1.54-.6-2.44-1.96-2.86-1.39-.43-2.81-.39-4.32-.28.01 2.18.01 4.27.01 6.5z" fill="#fff"/><path d="m108.95 23.33h7.42v12.28c.1.03.19.06.29.1 2.88-4.12 5.75-8.24 8.64-12.39h8.82c-3.47 4.59-6.85 9.07-10.3 13.62 3.72 4.75 7.4 9.46 11.17 14.28-3.24 0-6.3 0-9.45 0-2.94-4.05-5.91-8.12-8.87-12.19-.09.02-.18.04-.28.06-.09 1.98-.03 3.96-.04 5.94-.01 2.02 0 4.04 0 6.14-2.53 0-4.94 0-7.41 0 .01-9.28.01-18.5.01-27.84z" fill="#d12e26"/><g fill="#fff"><path d="m209.2 28.5c-.42-.23-.87-.41-1.24-.7-9.63-7.33-20.03-13.29-31.26-17.8-7.01-2.81-14.26-4.71-21.71-5.87-4.9-.76-9.82-1.28-14.78-1.38-1.4-.03-2.79-.12-4.18-.13-14.24-.04-27.77 3.08-40.62 9.18-9.11 4.33-17.41 9.83-24.79 16.7-.62.58-1.12 1.3-1.54 1.8-2.89 0-5.44 0-8.27 0 .85-.85 1.53-1.56 2.24-2.22 6.85-6.43 14.53-11.67 22.85-15.99 8.48-4.4 17.39-7.61 26.72-9.63 4.71-1.02 9.48-1.69 14.29-2.07 5.05-.4 10.09-.42 15.13-.15 8.44.45 16.72 1.92 24.81 4.37 13.69 4.14 26.17 10.62 37.34 19.57 1.72 1.38 3.32 2.9 4.97 4.36 0 0 .04-.04.04-.04z"/><path d="m45.49 21.67h6.44c.13 1.56.05 3.08.06 4.59.01 1.53 0 3.07 0 4.6v4.6 4.57c.08.04.17.07.25.11 2.34-2.58 4.45-5.37 6.81-8.04h8.37c-2.89 3.1-5.64 6.06-8.52 9.16 3.09 3.28 6.15 6.54 9.35 9.95-3.08 0-5.94 0-8.92 0-2.3-2.7-4.66-5.46-7.23-8.48-.16 1.18-.08 2.06-.09 2.92-.01.9 0 1.8 0 2.7v2.87c-1.13.02-2.19.04-3.25.05-1.03.01-2.07 0-3.01 0-.12-.11-.16-.13-.19-.17-.03-.03-.07-.07-.07-.11-.02-9.42-.04-18.84-.06-28.26-.01-.3.03-.61.06-1.06z"/><path d="m43.28 41.7c-.01 4.92-3.78 9.32-8.64 10.13-3.69.62-6.99-.14-9.74-2.77-5.27-5.04-3.83-13.67 2.8-16.7 4.46-2.04 10.38-1.14 13.7 3.38 1.17 1.61 1.88 3.85 1.88 5.96zm-6.65-.06c-.14-.65-.23-1.42-.48-2.12-.59-1.61-2.09-2.58-3.77-2.53-1.74.05-3.22 1.17-3.71 2.83-.35 1.19-.38 2.38-.03 3.59.52 1.82 1.99 2.95 3.87 2.96 1.79.01 3.28-1.12 3.78-2.89.15-.56.21-1.14.34-1.84z"/></g><path d="m152.89 51.19c-2.22 0-4.28 0-6.32 0-.26-1.04-.37-16.17-.14-18.89.9-.3 4.34-.37 6.09-.1v3.47c.48-.57.77-.88 1.02-1.22 1.89-2.53 4.49-3.31 7.51-3.01 1.12.11 2.21.35 3.19.99 1.72 1.12 2.59 2.76 2.65 4.75.12 3.69.15 7.38.21 11.07.02.94 0 1.88 0 2.91-2.28 0-4.46 0-6.82 0 0-.49 0-.97 0-1.45-.02-3.2-.03-6.39-.06-9.59 0-.4-.06-.81-.15-1.2-.28-1.23-.88-2.15-2.26-2.35-1.43-.22-2.69.04-3.63 1.21-.76.95-1.05 2.09-1.09 3.27-.1 2.92-.14 5.85-.21 8.77.01.41.01.81.01 1.37z" fill="#d12e26"/><path d="m88.71 42.94c-4.88 0-9.68 0-14.46 0-.2 2.06.66 3.69 2.21 4.36 2.18.95 4.46.28 6.38-1.89 1.43.58 2.89 1.17 4.35 1.77.16.07.3.17.49.28-.14.83-.64 1.4-1.17 1.95-.92.97-2.07 1.59-3.33 1.99-2.92.91-5.87.94-8.77-.04-4.98-1.69-7.26-5.88-6.63-10.9.57-4.51 3.14-7.48 7.57-8.69 2.73-.74 5.48-.61 8.04.65 3.44 1.69 4.92 4.73 5.32 8.39.06.61 0 1.24 0 2.13zm-14.32-3.88h7.59c-.2-2.17-1.66-3.54-3.71-3.56-2.2-.02-3.6 1.22-3.88 3.56z" fill="#fff"/><path d="m105.18 37.74c-.4-.08-.7-.15-1-.21-3.71-.7-6.44 1.5-6.5 5.28-.04 2.25-.01 4.51-.01 6.76v1.46c-.99.29-4.92.35-6.67.1 0-6.32 0-12.64 0-19.04h6.27v3.74c1.1-1.32 1.95-2.72 3.48-3.49 1.55-.78 3.17-.89 4.99-.7.03 2.08-.32 4.05-.56 6.1z" fill="#fff"/><path d="m143.27 51.18c-2.12 0-4.26 0-6.49 0 0-6.33 0-12.64 0-19.04h6.43c.26 1.02.32 17.48.06 19.04z" fill="#d12e26"/><path d="m143.42 26.56c.01 1.98-1.32 3.29-3.25 3.37-1.93.09-3.41-1.57-3.44-3.26-.03-1.81 1.54-3.42 3.35-3.4 2.17.05 3.42 1.53 3.34 3.29z" fill="#d12e26"/><path d="m209.16 28.54c.09.09.18.18.26.27 0 0 .03-.03.03-.03-.09-.09-.17-.18-.26-.27.01-.01-.03.03-.03.03z"/><path d="m209.7 29.07c-.08-.1-.16-.19-.24-.29 0 0-.03.03-.03.03.08.1.16.19.24.29z"/><path d="m209.66 29.1c.08.1.16.19.25.29 0 0 .03-.02.03-.02-.08-.1-.16-.2-.24-.3 0 0-.04.03-.04.03z"/><path d="m209.91 29.39.09.02-.06-.04z"/></svg>