<svg height="39" viewBox="0 0 210 39" width="210" xmlns="http://www.w3.org/2000/svg"><path d="m1.28 29.57c3.93 9.81 16.62 11.54 27.8 5.46 11.18-6.09 17.09-17.79 13.43-26.25-.47-1.11-1.26-2.69-2.29-3.68-5.19-5.26-15.43-5.61-24.81-.51-11.18 6.05-17.56 16.4-14.13 24.98z" fill="#962428"/><path d="m41.96 15.18c.12-.4.47-2.93.51-3.32l1.14 2.37c.08 1.86-.67 5.34-1.61 7.23l-1.14-2.45c.39-1.02.82-2.68 1.1-3.83zm-9.85 14.31c1.34-.95 4.49-3.76 5.4-5.1l1.18 2.65c-1.3 1.9-3.47 3.95-5.32 5.26zm-11.73 8.66-.79-2.53c2.95-.75 4.65-1.46 7.36-2.69l.71 2.85c-1.73.94-5.67 2.17-7.28 2.37zm-14.93-4.11c2.21.95 4.77 1.89 7.4 2.13l.56 2.25c-3.59-.47-4.57-1.14-6.38-2.05z" fill="#dfe0df" fill-rule="evenodd"/><path d="m8.41 14.27c-.83 1.23-1.66 2.29-2.25 3.6l-4.37-.95c.83-1.82 1.81-3.44 3.07-4.98l3.54 2.33zm7.79-6.56c-1.3.79-2.64 1.54-3.7 2.53l-2.84-3.08c1.5-1.47 2.72-2.3 4.65-3.21zm10.4-3.01c-1.73.04-3.59.32-5.36.91l-.98-4.27c2.48-.83 4.64-1.3 7.13-1.34l-.79 4.71zm9.29 3.72c-.94-1.3-2.28-2.21-3.66-3.12l2.68-4.15c2.17.75 4.25 2.33 5.55 4.15zm.91 5.34c.12-.4 0-.56.04-.95l6.14-1.07c-.31 2.18-.67 5.54-1.73 7.39l-5.63-1.62c.55-.98.94-2.61 1.18-3.75zm-7.6 11.47c1.22-1.15 2.83-2.3 3.78-3.6l4.92 3c-1.3 1.86-3.58 4.04-5.35 5.54zm-9.49 4.7c.51-.16.43-.12.94-.24 1.62-.51 2.64-.94 4.02-1.7l2.44 5.34c-2.68 1.42-4.61 1.78-7.56 2.53zm-10.36-.28c1.58.68 3.23.87 5.12 1.03l-1.62 5.54c-2.75-.16-5.39-1.07-7.44-2.18zm-4.33-7.15c-.04 1.58.47 3.08 1.1 4.47l-5 2.33c-.99-2.1-1.34-4.55-.99-6.88z" fill="#7f8082" fill-rule="evenodd"/><path d="m1.08 29.1c3.54 7.94 15.48 9.49 26.62 3.44 11.15-6.05 17.29-17.44 13.75-25.38-3.55-7.99-15.48-9.49-26.63-3.44-11.14 6.05-17.28 17.43-13.74 25.38z" fill="#ca262b"/><g fill-rule="evenodd"><path d="m8.41 14.27c-.83 1.23-1.66 2.29-2.25 3.6l-4.37-.95c.83-1.82 1.81-3.44 3.07-4.98l3.54 2.33zm7.79-6.56c-1.3.79-2.64 1.54-3.7 2.53l-2.84-3.08c1.5-1.47 2.72-2.3 4.65-3.21zm10.4-3.01c-1.73.04-3.59.32-5.36.91l-.98-4.27c2.48-.83 4.64-1.3 7.13-1.34l-.79 4.71zm9.29 3.72c-.94-1.3-2.28-2.21-3.66-3.12l2.68-4.15c2.17.75 4.25 2.33 5.55 4.15zm.91 5.34c.12-.4 0-.56.04-.95l6.14-1.07c-.31 2.18-.67 5.54-1.73 7.39l-5.63-1.62c.55-.98.94-2.61 1.18-3.75zm-7.6 11.47c1.22-1.15 2.83-2.3 3.78-3.6l4.92 3c-1.3 1.86-3.58 4.04-5.35 5.54zm-9.49 4.7c.51-.16.43-.12.94-.24 1.62-.51 2.64-.94 4.02-1.7l2.44 5.34c-2.68 1.42-4.61 1.78-7.56 2.53zm-10.36-.28c1.58.68 3.23.87 5.12 1.03l-1.62 5.54c-2.75-.16-5.39-1.07-7.44-2.18zm-4.33-7.15c-.04 1.58.47 3.08 1.1 4.47l-5 2.33c-.99-2.1-1.34-4.55-.99-6.88z" fill="#fff"/><path d="m5.57 26.13c2.48 5.49 11.38 6.21 19.85 1.54 8.46-4.63 13.31-12.85 10.83-18.38-2.48-5.5-11.38-6.21-19.85-1.58-8.47 4.66-13.31 12.88-10.83 18.42z" fill="#fff"/><path d="m5.41 26.17c-.11-.25-.21-.51-.29-.78-.08-.26-.15-.53-.21-.8-.06-.28-.1-.55-.13-.83-.02-.27-.04-.55-.04-.83 0-5.26 4.57-11.54 11.58-15.38 3.78-2.05 7.68-3.08 11.03-3.08 4.21 0 7.64 1.58 9.06 4.74.43.99.66 2.1.66 3.2 0 5.26-4.56 11.55-11.57 15.38-3.78 2.1-7.68 3.09-11.03 3.09-4.17.04-7.64-1.55-9.06-4.71zm19.93 1.35c6.93-3.8 11.42-10.01 11.38-15.07 0-1.1-.2-2.13-.63-3.08-1.34-2.97-4.61-4.55-8.74-4.55-3.31 0-7.13.99-10.87 3.05-6.93 3.79-11.42 10-11.42 15.06 0 1.11.19 2.13.63 3.08l-.12.12.16-.08c1.34 2.97 4.64 4.51 8.74 4.51 3.31 0 7.13-.99 10.87-3.04z" fill="#962428"/></g><path d="m10.45 8.03c-.37.38-.74.76-1.1 1.16-.35.4-.7.8-1.04 1.21-.34.42-.67.84-.99 1.26-.31.43-.62.87-.92 1.31l.94.63c.37-.35.74-.69 1.12-1.02s.77-.66 1.16-.98.78-.63 1.19-.94c.4-.3.81-.6 1.22-.89zm29.66-2.49-3.23 2.21c.9 1.19 1.53 2.73 1.81 4.74l1.14-.19c1.22-2.69 1.18-4.94.28-6.76zm-19.81-4c-.5.19-1 .4-1.49.62-.49.21-.98.45-1.46.69-.47.25-.94.51-1.4.79-.47.28-.92.57-1.36.87l1.42 2.77c.39-.21.8-.41 1.21-.6s.83-.36 1.25-.53c.42-.16.84-.31 1.27-.44.43-.14.87-.26 1.31-.37.04 0 .07 0 .11-.04zm7.72-1.38h-.63l-.75 4.23c.59-.04 1.18-.08 1.77-.08 1.42 0 2.8.16 4.06.52l2.28-3.52c-1.97-.75-4.33-1.15-6.73-1.15z" fill="#ca262b"/><path d="m6.36 12.93c-1.66 2.41-2.44 4.23-2.44 4.23s1.26-1.58 3.42-3.6zm8.23-8.38c-1.58 1.07-2.96 2.29-4.18 3.48l1.58 1.7c.31-.23.63-.45.96-.66.32-.22.65-.42.98-.62.33-.21.67-.4 1.01-.59s.68-.37 1.03-.54zm12.8-4.39c-1.89.04-3.78.36-5.56.87-.51.16-1.02.32-1.49.51l.86 3.8c1.74-.44 3.63-.79 5.48-.95zm7.4 1.15-2.28 3.52c1.73.51 3.26 1.42 4.37 2.92l3.23-2.21c-.95-1.94-2.92-3.36-5.32-4.23zm5.04 10.99-1.14.19c.08.52.12 1.07.16 1.63.39-.6.71-1.23.98-1.82z" fill="#fff"/><path d="m32.66 7.71-9.02 3.71-5.98-3.2-1.81 7.32-8.35 5.45 7.91.79.83 6.56 6.7-6.84 8.9-1.38-3.82-5.02z" fill="#b8242a" fill-rule="evenodd"/><path d="m17.46 8.97c-3.15 1.78-6.02 4.04-7.44 6.37-3.9 6.36-4.02 8.38-2.36 8.38 1.18 0 3.22-.99 5.39-2.18l-5.55-.55 8.35-5.45zm10.52-3.44c-2.56 0-6.3 1.19-9.77 3.01l5.4 2.88 9.05-3.71-4.64 7.39.07.12c.63-.16 1.15-.24 1.62-.24 1.77 0 2.28 1.27 1.73 4.63l.36.47-.44.12c-.08.44-.15.91-.27 1.42 0 .08 0 .12.04.12.23 0 1.73-2.01 2.87-4.7 2.8-6.56-1.02-10.48-4.57-11.39-.12-.02-.24-.04-.36-.05-.12-.02-.24-.03-.36-.04s-.25-.02-.37-.02c-.12-.01-.24-.01-.36-.01z" fill="#fff"/><path d="m32.66 7.71-4.57 7.43.08.12c-2.04.47-5 1.7-9.01 3.24-1.7.63-3.94 1.9-6.07 3.04l-5.59-.55 8.31-5.45 1.61-6.57c.28-.15.52-.31.79-.43l5.4 2.88zm-1.18 11.94.4.47-.48.08c0-.2.04-.36.08-.55z" fill="#ca262b" fill-rule="evenodd"/><path d="m61.92 20.87-1.3 6.01c-.23 1.27-.39 2.26-.39 3.01 0 .43.04.87.16 1.34h-8.9c.27-.51.55-1.1.79-1.78.23-.63.47-1.5.67-1.93l3.3-16.73c.12-1.22.2-1.74.24-2.17.04-.44.08-.83.08-1.23 0-.59-.08-1.14-.24-1.62h16.5c1.5 0 2.6.28 3.31.79.71.52 1.02 1.47 1.02 2.73 0 .51-.07 1.23-.23 2.06l-.91 5.33c-.35 1.74-.82 2.85-1.41 3.36-.63.52-1.46.76-2.45.76l1.3 6.48c.12.75.24 1.46.4 2.17.11.71.31 1.31.51 1.7h-7.92l-1.45-10.39h-3.08zm.87-4.23h4.33c.51 0 .87-.07 1.07-.27.19-.16.35-.56.47-1.19l.59-3.75c.08-.28.08-.52.08-.72 0-.47-.36-.71-1.07-.71h-4.33zm23.16 9.02c-.08.27-.08.51-.08.71 0 .79.47 1.19 1.42 1.19h7.12c.83 0 1.42-.04 1.86-.16.43-.08.98-.32 1.65-.67l-1.46 4.46h-14.73c-1.22 0-2.12-.23-2.64-.75-.55-.51-.78-1.3-.78-2.37 0-.71.08-1.54.27-2.49l1.46-7.39c.39-2.06.98-3.48 1.77-4.35s1.97-1.31 3.62-1.31h11.27c1.22 0 2.12.24 2.64.75.55.52.78 1.31.78 2.38 0 .71-.07 1.54-.27 2.49l-1.18 5.77h-12.37zm6.22-5.38.51-2.53c.08-.28.08-.51.08-.71 0-.51-.28-.79-.87-.79h-3.03c-.75 0-1.18.51-1.34 1.5l-.51 2.53zm21.97 8.98c-.78 1.34-1.49 1.97-2.12 1.97h-6.22c-1.26 0-2.21-.31-2.84-.99-.59-.67-.91-1.62-.91-2.8 0-.28 0-.56.04-.87.04-.32.08-.68.16-1.15l1.42-7.08c.35-1.81.98-3.24 1.93-4.27.94-1.02 2.2-1.54 3.86-1.54h5.79c.59 0 .98.2 1.18.64.2.43.31.9.39 1.5l1.07-5.3c.15-.87.23-1.58.23-2.17 0-.24-.04-.52-.08-.76-.04-.27-.08-.47-.11-.67h8.03l-4.33 21.94c-.16.83-.24 1.55-.24 2.1 0 .24.04.47.08.71s.08.48.12.67h-7.41v.04zm2.09-11.63c.08-.23.08-.43.08-.63 0-.51-.28-.79-.83-.79h-2.95c-.67 0-1.1.47-1.3 1.42l-1.65 8.5c-.08.24-.08.44-.08.63 0 .52.27.8.86.8h2.96c.67 0 1.1-.48 1.3-1.43zm30.84-7.43c-.13-.03-.27-.06-.4-.09s-.27-.05-.4-.06c-.14-.02-.27-.03-.41-.04-.13-.01-.27-.01-.41-.01h-7.13c-.59 0-1.02.08-1.22.2-.19.12-.35.44-.47.91l-.27 1.42c-.04.28-.08.44-.08.48 0 .27.08.43.27.51.2.08.51.12 1.07.12h5.43c2.8 0 4.21 1.15 4.21 3.48 0 .47-.07 1.03-.19 1.66l-1.22 6.21c-.44 2.09-1.07 3.67-2.01 4.7-.91 1.03-2.25 1.54-4.02 1.54h-13.78l.35-5.18c.44.28.83.52 1.22.71.4.16.95.28 1.58.28h7.4c.59 0 .99-.08 1.22-.2.24-.11.36-.43.48-.9l.35-1.74c.04-.28.08-.44.08-.48 0-.43-.44-.63-1.3-.63h-6.22c-1.22 0-2.09-.24-2.6-.67-.55-.44-.79-1.23-.79-2.34 0-.67.08-1.5.28-2.49l1.14-5.69c.79-4.03 2.6-6.05 5.43-6.05h14.02l-.31 4.98c-.48-.27-.91-.51-1.3-.63zm15.36-1.7-.83 4.07h5.91l-.71 3.68h-5.91l-1.93 9.84c-.08.32-.08.56-.08.75 0 .28.08.48.28.6.16.12.51.16 1.02.16h2.6c.63 0 1.14-.08 1.58-.24.43-.16.82-.32 1.22-.52l-1.3 4.39h-9.3c-1.06 0-1.93-.27-2.52-.79-.63-.51-.94-1.46-.94-2.77 0-.47 0-.83.04-1.06.04-.24.08-.63.23-1.19l1.78-9.17h-3.16l.71-3.68h3.15l.71-3.83zm26.58 4.98c.63.59.94 1.58.94 3.01 0 .83-.11 1.89-.35 3.12l-1.61 8.14c-.16.75-.24 1.43-.24 1.98 0 .51.08 1.03.24 1.5h-7.41l.04-2.05c-.39.83-.83 1.42-1.26 1.66-.43.27-1.18.39-2.24.39h-5.2c-1.22 0-2.13-.23-2.64-.75-.55-.51-.79-1.3-.79-2.41 0-.71.08-1.54.28-2.53l.27-1.34c.4-2.06.99-3.52 1.78-4.39.78-.87 1.96-1.31 3.62-1.31h6.73c.51 0 .87-.08 1.07-.23.19-.16.31-.4.39-.76.08-.35.12-.55.12-.63 0-.51-.36-.75-1.11-.75h-7.36c-1.1 0-2.13.24-3.11.67l1.42-4.35h13.43v.12c1.33 0 2.36.32 2.99.91zm-11.89 9.05c-.28.2-.48.64-.63 1.31l-.4 2.13c-.08.28-.08.52-.08.72 0 .35.08.59.28.71s.55.2 1.06.2h1.73c.71 0 1.19-.16 1.42-.44.24-.28.47-1.03.71-2.25l.51-2.65h-3.34v-.04c-.6 0-1.03.12-1.26.31zm24.81-6.83c.63-1.23 1.26-2.06 1.85-2.49.59-.44 1.45-.68 2.6-.68h3.62l-1.18 6.13c-.47-.39-.87-.63-1.18-.75-.32-.12-1.03-.16-2.05-.16-1.42 0-2.4.2-2.91.63-.56.44-.91 1.27-1.19 2.53l-1.18 6.01c-.19 1.11-.31 1.94-.31 2.53 0 .28.04.56.08.75.04.2.11.56.23 1.03h-9.1c.44-.67.75-1.26.99-1.74.24-.51.43-1.34.67-2.53l1.97-10.12c.19-1.11.31-1.93.31-2.53 0-.28-.04-.55-.08-.75-.01-.09-.03-.17-.05-.26-.02-.08-.04-.17-.06-.25-.02-.09-.04-.18-.06-.26-.02-.09-.04-.17-.06-.26h7.44v.04z" fill="#fff" fill-rule="evenodd"/></svg>