<?xml version="1.0" encoding="utf-8"?>
<!-- Generator: Adobe Illustrator 25.0.0, SVG Export Plug-In . SVG Version: 6.00 Build 0)  -->
<svg version="1.1" width="60" height="16" id="Layer_1" xmlns="http://www.w3.org/2000/svg" xmlns:xlink="http://www.w3.org/1999/xlink" x="0px" y="0px"
	 viewBox="0 0 75.29 16" style="enable-background:new 0 0 75.29 16;" xml:space="preserve">
<style type="text/css">
	.st0{fill:#FFFFFF;}
	.st1{fill:#BCBCBC;}
	.st2{fill:#1BA27A;}
	.st3{fill:#FF060A;}
	.st4{fill:#627EEA;}
	.st5{fill:#2775CA;}
	.st6{fill:#FFF6CF;}
	.st7{fill:#F2BB30;}
	.st8{fill:#F4F4F4;}
	.st9{fill:#FEB83C;}
	.st10{fill:#FED33C;}
</style>
<g>
	<g>
		<path class="st0" d="M36.4,2.4v7.05c0,2.15,0.86,3.14,3.01,3.14c2.26,0,3.01-1.08,3.01-3.14V2.4h1.49v6.65
			c0,3.14-1.11,4.76-4.5,4.76c-3.23,0-4.5-1.51-4.5-4.6V2.4H36.4z"/>
		<path class="st0" d="M52.8,5.68c-0.17-1.62-1.13-2.28-2.78-2.28c-1.6,0-2.53,0.68-2.53,1.85c0,1.26,1.3,1.52,3.03,1.88
			c1.82,0.38,4.14,0.94,4.14,3.3c0,2.48-2.21,3.39-4.35,3.39c-2.67,0-4.63-1.24-4.63-3.94h1.43c0.06,2.02,1.54,2.73,3.33,2.73
			c1.3,0,2.78-0.45,2.78-2.04c0-1.44-1.41-1.73-3.25-2.15c-1.8-0.41-3.89-0.71-3.89-3.06c0-2.29,2.04-3.19,4.05-3.19
			c2.37,0,4,1.1,4.1,3.5H52.8z"/>
		<path class="st0" d="M60.13,2.4c3.77,0,5.54,1.66,5.54,5.49c0,3.64-1.49,5.68-5.27,5.68h-3.91V2.4H60.13z M57.97,12.3h2.24
			c2.83,0,4-1.36,4-4.24c0-2.98-1.04-4.39-4.06-4.39h-2.18V12.3z"/>
		<path class="st0" d="M75.29,3.68h-3.75v9.89h-1.48V3.68h-3.75V2.4h8.98V3.68z"/>
	</g>
	<g>
		<path class="st0" d="M14.72,0.55H1.76v3.13h4.92v4.6h3.13v-4.6h4.92V0.55z"/>
		<path class="st0" d="M8.27,8.77C4.2,8.77,0.9,8.13,0.9,7.34c0-0.79,3.3-1.44,7.37-1.44c4.07,0,7.37,0.64,7.37,1.44
			C15.64,8.13,12.34,8.77,8.27,8.77z M16.54,7.58c0-1.02-3.7-1.85-8.27-1.85C3.7,5.72,0,6.55,0,7.58c0,0.9,2.87,1.65,6.68,1.82V16
			h3.13V9.4C13.64,9.24,16.54,8.48,16.54,7.58z"/>
		<g>
			<circle class="st1" cx="19.7" cy="7.81" r="7.81"/>
			<g>
				<polygon class="st0" points="16.39,8.43 19.7,12.85 23.02,8.43 19.7,10.33 				"/>
				<polygon class="st0" points="23.65,7.86 19.7,2.75 15.75,7.86 19.7,9.85 				"/>
			</g>
		</g>
	</g>
</g>
</svg>
