<svg width="200" height="200" viewBox="0 0 200 200" fill="none" xmlns="http://www.w3.org/2000/svg">
<path d="M200 0H0V200H200V0Z" fill="black"/>
<path d="M88.1195 82.1683C88.1195 79.331 88.3957 76.569 88.8979 73.8824H68.7354L56.4571 89.7763H75.9668C75.9668 89.7763 76.5945 89.8014 77.2474 89.9019C80.8881 90.3287 83.7506 93.4422 83.7506 97.1835C83.7506 100.9 80.9635 103.988 77.2474 104.44H65.6721C53.1428 104.44 42.9736 94.6223 42.9736 82.093C42.9736 80.4358 43.1494 78.8288 43.5009 77.2469C43.752 76.1422 44.7313 72.5516 46.6898 69.4883C50.657 63.2864 57.7126 59.269 65.6219 59.269H78.6786C78.6786 59.269 78.6786 59.2438 78.7037 59.2438H87.994L100.297 43.0235H95.1751H65.0946H64.8937C43.4507 42.9984 26 60.4993 26 82.0177C26 103.536 43.4507 121.037 64.9189 121.037H65.0946H76.2179H91.2832C95.7777 121.037 99.4185 117.471 99.4185 112.977V111.571C92.388 103.737 88.1195 93.4171 88.1195 82.1683Z" fill="white"/>
<path d="M157.822 59.1953L170.1 43H132.863H132.663C119.706 43 108.232 49.3777 101.151 59.1953H157.822Z" fill="#CD181F"/>
<path d="M159.077 73.909H135.801L123.523 89.803H143.736C143.736 89.803 144.363 89.8281 145.016 89.9285C148.657 90.3554 151.519 93.4689 151.519 97.2101C151.519 100.926 148.732 104.015 145.016 104.467H133.441C120.912 104.467 110.742 94.649 110.742 82.1196C110.742 80.4624 110.918 78.8555 111.27 77.2736C111.395 76.6459 111.772 75.2649 112.4 73.6328H94.6979C94.0953 76.3446 93.7939 79.1568 93.7939 82.0443C93.7939 103.563 111.245 121.064 132.713 121.064H132.889H144.012H159.077C163.572 121.064 167.212 117.498 167.212 113.004V82.0945C167.212 77.6 163.572 73.909 159.077 73.909Z" fill="white"/>
<path d="M115.471 149.042C116.692 151.302 118.407 152.211 120.641 152.237C123.836 152.263 127.058 152.263 130.253 152.289C130.851 152.289 131.449 152.289 132.176 152.289C132.176 153.796 132.15 155.251 132.15 156.784C131.786 156.81 131.423 156.862 131.033 156.862C127.526 156.862 124.018 156.836 120.511 156.81C115.029 156.758 110.639 152.679 110.405 147.509C110.145 141.871 114.042 137.273 119.706 136.935C123.836 136.701 127.993 136.935 132.254 136.961C132.254 138.468 132.228 139.897 132.228 141.533C131.423 141.533 130.617 141.533 129.812 141.533C126.746 141.507 123.655 141.481 120.589 141.481C118.433 141.481 116.796 142.391 115.523 144.443C121.186 144.469 126.642 144.495 132.202 144.521C132.202 146.106 132.176 147.535 132.176 149.172C126.694 149.12 121.186 149.094 115.471 149.042Z" fill="white"/>
<path d="M150.752 151.746C153.35 153.539 155.662 155.123 158 156.734C157.974 156.812 157.948 156.89 157.922 156.994C155.87 156.994 153.817 156.994 151.765 156.942C151.453 156.942 151.141 156.656 150.882 156.448C148.258 154.63 145.66 152.785 143.036 150.941C142.334 150.447 141.711 149.927 141.996 148.94C142.282 147.901 143.114 147.745 144.049 147.771C145.997 147.797 147.946 147.823 149.894 147.797C151.973 147.797 153.428 146.42 153.454 144.472C153.479 142.471 152.025 141.068 149.894 141.068C146.335 141.042 142.802 141.016 139.113 141.016C139.087 146.29 139.061 151.486 139.035 156.812C137.58 156.812 136.281 156.786 134.878 156.786C134.904 150.213 134.956 143.666 134.982 137.041C135.268 137.015 135.553 136.938 135.865 136.938C140.593 136.963 145.296 136.938 150.024 137.015C155.766 137.119 159.221 142.627 156.753 147.693C155.74 149.772 154.129 151.071 151.817 151.512C151.531 151.538 151.271 151.616 150.752 151.746Z" fill="white"/>
<path d="M48.1572 151.123C48.1572 149.798 48.1832 148.603 48.1832 147.278C51.2228 147.304 54.1845 147.33 57.1462 147.304C59.9001 147.278 61.5628 144.42 60.082 142.185C59.5884 141.484 58.6271 140.705 57.8477 140.679C54.0027 140.497 50.1577 140.575 46.1828 140.549C46.1568 145.849 46.1308 151.071 46.1048 156.37C44.6759 156.37 43.4029 156.345 42 156.345C42.026 149.746 42.0779 143.173 42.1039 136.418C42.9353 136.418 43.7147 136.418 44.4681 136.418C48.7028 136.444 52.9375 136.418 57.1982 136.496C63.1476 136.626 66.5769 142.783 63.5373 147.823C62.3422 149.824 60.5756 151.071 58.2634 151.149C54.938 151.278 51.6125 151.149 48.1572 151.123Z" fill="white"/>
<path d="M66.4991 146.964C66.5511 140.832 71.4873 135.974 77.6185 136C83.7497 136.026 88.6339 140.988 88.608 147.119C88.556 153.225 83.5939 158.135 77.4886 158.109C71.3574 158.057 66.4731 153.095 66.4991 146.964ZM84.659 147.068C84.659 143.197 81.4116 139.949 77.5406 139.949C73.6436 139.975 70.4221 143.223 70.4481 147.093C70.474 150.913 73.6696 154.108 77.4886 154.134C81.3596 154.16 84.659 150.913 84.659 147.068Z" fill="white"/>
<path d="M112.38 156.682C110.587 156.682 108.768 156.682 106.976 156.63C106.638 156.63 106.248 156.37 105.963 156.136C102.975 153.694 100.013 151.252 97.0516 148.784C95.5967 147.563 95.5448 145.744 97.0256 144.523C100.013 142.029 103.053 139.613 106.093 137.197C106.378 136.963 106.794 136.807 107.132 136.781C108.898 136.755 110.665 136.781 112.432 136.781C112.536 136.911 112.665 137.067 112.769 137.197C112.458 137.327 112.12 137.405 111.86 137.612C108.665 140.184 105.469 142.782 102.3 145.38C101.026 146.42 101.026 146.861 102.274 147.9C105.651 150.732 109.028 153.538 112.406 156.37C112.406 156.474 112.38 156.578 112.38 156.682Z" fill="white"/>
<path d="M94.8432 156.628C93.4922 156.628 92.1932 156.603 90.8423 156.603C90.8683 149.978 90.9202 143.379 90.9462 136.754C92.2972 136.754 93.5961 136.78 94.9471 136.78C94.9211 143.431 94.8951 150.004 94.8432 156.628Z" fill="white"/>
</svg>
